<svg id="Layer_1" data-name="Layer 1" xmlns="http://www.w3.org/2000/svg" width="505" height="230" viewBox="0 0 505 230"><defs><style>.cls-1{fill:#fff;}.cls-2{fill:#c4242e;}.cls-3{fill:none;stroke:#fff;stroke-miterlimit:10;stroke-width:7px;}</style></defs><title>dogfinger_logo</title><path class="cls-1" d="M133,131l2.89-3.11s12.24,1.83,14.24,11.83c.15.78-3.77.84-3.77.84S144.08,132.57,133,131Z"/><path class="cls-2" d="M102.55,1.23C94.34,3.64,85.89,5.66,92.9,39.61s20.56,35.28,29.39,34.15,36.52-13.9,20.91-44.7S111.89-1.51,102.55,1.23Z"/><path class="cls-2" d="M199.32,93.92c2.37-2.24,1.9-16.53-.68-28.69-4.89-23-19.29-32-30.13-26.49-9.79,5-9.42,43.25-7.45,49,3,8.86,29.27,15.51,38.26,6.14"/><path class="cls-2" d="M113.86,94.92C103.25,95.68,87,102,81,124c-3.75,13.59-18.77,43.79-21.33,52.8-2.81,9.86-3.14,27.53,16.81,32s29-8,36.66-13,17.47-7.34,26-9c10.91-2.11,38.11-2.08,41.44-2.29,6.14-.39,31.32-8.14,21.18-34.13S128.23,93.9,113.86,94.92Z"/><path class="cls-2" d="M38.22,160.62C35,160.71,26,150,19.89,139.23,8.34,119,12.8,102,24.22,98.12c10.33-3.46,35.17,24.71,37.55,30.36,3.64,8.63-10.93,32.47-23.55,32.14"/><line class="cls-3" x1="199.71" y1="199.88" x2="150.12" y2="159.46"/><path class="cls-3" d="M154.8,135.07c4.21,8.51,2,18.17-4.77,24.47h0a24.41,24.41,0,0,1-7.43,4.71c-12.24,5-26.61,0-32.1-11.09s0-24.18,12.2-29.18S149.3,124,154.8,135.07Z"/><path class="cls-2" d="M46.36,21.35c7.48-4.28,14.87-9,31.92,20.75s8.16,40.7,1.07,46.36S44,105.19,35.21,71.39,37.84,26.22,46.36,21.35Z"/><path d="M307.47,27.44V62a27.28,27.28,0,1,1-7.4-18.7V27.44Zm-27.3,14.7A20,20,0,1,0,300.07,62,20,20,0,0,0,280.17,42.14Z"/><path d="M367.37,62a27.35,27.35,0,1,1-27.3-27.3A27.36,27.36,0,0,1,367.37,62ZM360,62a20,20,0,1,0-19.9,20A19.89,19.89,0,0,0,360,62Z"/><path d="M400.07,58.34h27c.1,1.2.2,2.5.2,3.7a27.13,27.13,0,1,1-2.3-11.1h-8.4a20,20,0,1,0,3,14.8h-19.5Z"/><path d="M253.18,174V139a27.1,27.1,0,0,1,27.3-27.11v7.4a19.9,19.9,0,0,0-19.9,19.91v4.2h19.3v7.4h-19.3V174Z"/><path d="M288.78,121.87a5,5,0,0,1-5-5,5,5,0,0,1,10,0A5,5,0,0,1,288.78,121.87Zm3.7,6.11v46h-7.4V128Z"/><path d="M352.28,174h-7.4v-26.7a19.9,19.9,0,1,0-39.8,0V174h-7.4v-26.9a27.3,27.3,0,1,1,54.6.2Z"/><path d="M412.08,112.47v34.61a27.3,27.3,0,1,1-7.4-18.7V112.47Zm-27.3,14.71a20,20,0,1,0,19.9,19.9A20,20,0,0,0,384.78,127.18Z"/><path d="M440.78,166.68a25.79,25.79,0,0,0,3.9.4,20,20,0,0,0,19.6-16.3h7.5a27.38,27.38,0,1,1-1.6-13.5Zm-7.3-3.1,27.7-27.7a20.18,20.18,0,0,0-16.5-8.7,19.89,19.89,0,0,0-11.2,36.4Z"/><path d="M504.28,119.67v7.4a20.05,20.05,0,0,0-19.9,20V174H477v-26.9A27.43,27.43,0,0,1,504.28,119.67Z"/><path class="cls-1" d="M130.86,131.88l2-4s15,2,16,9l-2,2A15.28,15.28,0,0,0,130.86,131.88Z"/></svg>
