<svg id="Layer_1" data-name="Layer 1" xmlns="http://www.w3.org/2000/svg" width="480" height="230" viewBox="0 0 480 230"><defs><style>.cls-1{fill:#fff;}.cls-2{fill:#c4242e;}.cls-3{fill:none;stroke:#fff;stroke-miterlimit:10;stroke-width:7px;}</style></defs><title>dogfinger_logo</title><path class="cls-1" d="M120.51,131l2.89-3.11s12.24,1.83,14.24,11.83c.15.78-3.77.84-3.77.84S131.58,132.57,120.51,131Z"/><path class="cls-2" d="M90.05,1.23C81.84,3.64,73.39,5.66,80.4,39.61S101,74.89,109.79,73.76s36.52-13.9,20.91-44.7S99.39-1.51,90.05,1.23Z"/><path class="cls-2" d="M186.82,93.92c2.37-2.24,1.9-16.53-.68-28.69-4.89-23-19.29-32-30.13-26.49-9.79,5-9.42,43.25-7.45,49,3,8.86,29.27,15.51,38.26,6.14"/><path class="cls-2" d="M101.36,94.92c-10.61.76-26.83,7.12-32.86,29-3.75,13.59-18.77,43.79-21.33,52.8-2.81,9.86-3.14,27.53,16.81,32s29-8,36.66-13,17.47-7.34,26-9c10.91-2.11,38.11-2.08,41.44-2.29,6.14-.39,31.32-8.14,21.18-34.13S115.73,93.9,101.36,94.92Z"/><path class="cls-2" d="M25.72,160.62c-3.18.09-12.21-10.66-18.33-21.39C-4.16,119,.3,102,11.72,98.12c10.33-3.46,35.17,24.71,37.55,30.36,3.64,8.63-10.93,32.47-23.55,32.14"/><line class="cls-3" x1="187.21" y1="199.88" x2="137.62" y2="159.46"/><path class="cls-3" d="M142.3,135.07c4.21,8.51,2,18.17-4.77,24.47h0a24.41,24.41,0,0,1-7.43,4.71c-12.24,5-26.61,0-32.1-11.09S98,129,110.2,124,136.8,124,142.3,135.07Z"/><path class="cls-2" d="M33.86,21.35c7.48-4.28,14.87-9,31.92,20.75s8.16,40.7,1.07,46.36S31.51,105.19,22.71,71.39,25.34,26.22,33.86,21.35Z"/><path d="M270,28.44V63a27.28,27.28,0,1,1-7.4-18.7V28.44Zm-27.3,14.7A20,20,0,1,0,262.57,63,20,20,0,0,0,242.67,43.14Z"/><path d="M329.87,63a27.35,27.35,0,1,1-27.3-27.3A27.36,27.36,0,0,1,329.87,63Zm-7.4,0a20,20,0,1,0-19.9,20A19.89,19.89,0,0,0,322.47,63Z"/><path d="M362.57,59.34h27c.1,1.2.2,2.5.2,3.7a27.13,27.13,0,1,1-2.3-11.1h-8.4a20,20,0,1,0,3,14.8h-19.5Z"/><path d="M215.68,175V140A27.1,27.1,0,0,1,243,112.87v7.4a19.9,19.9,0,0,0-19.9,19.91v4.2h19.3v7.4h-19.3V175Z"/><path d="M251.28,122.87a5,5,0,0,1-5-5,5,5,0,1,1,10,0A5,5,0,0,1,251.28,122.87ZM255,129v46h-7.4V129Z"/><path d="M314.78,175h-7.4v-26.7a19.9,19.9,0,1,0-39.8,0V175h-7.4v-26.9a27.3,27.3,0,1,1,54.6.2Z"/><path d="M374.58,113.47v34.61a27.3,27.3,0,1,1-7.4-18.7V113.47Zm-27.3,14.71a20,20,0,1,0,19.9,19.9A20,20,0,0,0,347.28,128.18Z"/><path d="M403.28,167.68a25.79,25.79,0,0,0,3.9.4,20,20,0,0,0,19.6-16.3h7.5a27.38,27.38,0,1,1-1.6-13.5Zm-7.3-3.1,27.7-27.7a20.18,20.18,0,0,0-16.5-8.7,19.89,19.89,0,0,0-11.2,36.4Z"/><path d="M466.78,120.67v7.4a20.05,20.05,0,0,0-19.9,20V175h-7.4v-26.9A27.43,27.43,0,0,1,466.78,120.67Z"/></svg>
